<?xml version="1.0" encoding="utf-8"?>
<!-- Generator: Adobe Illustrator 27.0.1, SVG Export Plug-In . SVG Version: 6.00 Build 0)  -->
<svg version="1.1" id="Capa_1" xmlns="http://www.w3.org/2000/svg" xmlns:xlink="http://www.w3.org/1999/xlink" x="0px" y="0px"
	 viewBox="0 0 800 251" style="enable-background:new 0 0 800 251;" xml:space="preserve">
<style type="text/css">
	.st0{fill:#FFFFFF;}
	.st1{fill:#A6A6A6;}
	.st2{fill:url(#SVGID_1_);}
</style>
<g transform="scale(4.00216 4.0011)">
	<path class="st0" d="M198.6,54c0,3.1-2.5,5.7-5.7,5.7c0,0,0,0,0,0H7c-3.1,0-5.7-2.5-5.7-5.7V8.7c0-3.1,2.5-5.7,5.7-5.7h185.9
		c3.1,0,5.7,2.5,5.7,5.7c0,0,0,0,0,0L198.6,54L198.6,54z"/>
	<path class="st1" d="M192.9,61H7c-3.9,0-7-3.1-7-7V8.7c0-3.9,3.1-7,7-7h185.9c3.9,0,7,3.1,7,7V54C199.9,57.9,196.8,61,192.9,61
		L192.9,61z"/>
	<path d="M198.6,54c0,3.1-2.5,5.7-5.7,5.7c0,0,0,0,0,0H7c-3.1,0-5.7-2.5-5.7-5.7V8.7c0-3.1,2.5-5.7,5.7-5.7h185.9
		c3.1,0,5.7,2.5,5.7,5.7c0,0,0,0,0,0L198.6,54L198.6,54z"/>
	<path class="st0" d="M44.6,31.1c0-4.8,3.9-7.1,4.1-7.2c-2.2-3.3-5.7-3.7-6.9-3.7c-2.9-0.3-5.7,1.7-7.2,1.7c-1.5,0-3.8-1.7-6.3-1.7
		c-3.2,0-6.1,1.9-7.8,4.7c-3.4,5.8-0.9,14.4,2.4,19.1c1.6,2.3,3.5,4.9,6,4.8c2.4-0.1,3.3-1.5,6.2-1.5c2.9,0,3.7,1.5,6.2,1.5
		c2.6,0,4.2-2.3,5.8-4.6c1.9-2.6,2.6-5.2,2.6-5.4C49.7,38.7,44.7,36.8,44.6,31.1L44.6,31.1z M39.9,17c1.3-1.6,2.2-3.8,1.9-6.1
		c-1.9,0.1-4.2,1.3-5.6,2.9c-1.2,1.4-2.3,3.7-2,5.8C36.4,19.8,38.6,18.6,39.9,17z"/>
	
		<linearGradient id="SVGID_1_" gradientUnits="userSpaceOnUse" x1="-44.5783" y1="301.0732" x2="-44.5783" y2="337.1182" gradientTransform="matrix(23.7359 0 0 -23.7231 1204.7523 7203.5332)">
		<stop  offset="0" style="stop-color:#1A1A1A;stop-opacity:0.1"/>
		<stop  offset="0.123" style="stop-color:#212121;stop-opacity:0.151"/>
		<stop  offset="0.308" style="stop-color:#353535;stop-opacity:0.227"/>
		<stop  offset="0.532" style="stop-color:#575757;stop-opacity:0.318"/>
		<stop  offset="0.783" style="stop-color:#858585;stop-opacity:0.421"/>
		<stop  offset="1" style="stop-color:#B3B3B3;stop-opacity:0.51"/>
	</linearGradient>
	<path class="st2" d="M192.9,1.7H93.3l39,59.3h60.6c3.9,0,7-3.1,7-7V8.7C199.9,4.9,196.8,1.7,192.9,1.7z"/>
	<g>
		<path class="st0" d="M79.5,48.4h-3.4l-1.8-5.8h-6.4l-1.8,5.8h-3.3l6.3-19.7h3.9L79.5,48.4L79.5,48.4z M73.8,40.2l-1.7-5.1
			c-0.2-0.5-0.5-1.8-1-3.7H71c-0.2,0.8-0.5,2.1-0.9,3.7l-1.6,5.1H73.8z M95.8,41.1c0,2.4-0.7,4.3-2,5.7c-1.2,1.2-2.6,1.9-4.4,1.9
			c-1.9,0-3.2-0.7-4.1-2v7.5h-3.2V38.9c0-1.5,0-3.1-0.1-4.7h2.8l0.2,2.3h0.1c1.1-1.7,2.7-2.5,4.8-2.5c1.7,0,3.1,0.7,4.2,2
			C95.3,37.2,95.8,39,95.8,41.1L95.8,41.1z M92.6,41.3c0-1.4-0.3-2.5-0.9-3.4c-0.7-0.9-1.6-1.4-2.8-1.4c-0.8,0-1.5,0.3-2.1,0.8
			c-0.6,0.5-1,1.2-1.2,2c-0.1,0.3-0.1,0.6-0.1,1v2.4c0,1,0.3,1.9,1,2.6c0.6,0.7,1.5,1.1,2.5,1.1c1.2,0,2.1-0.5,2.8-1.4
			C92.3,44,92.6,42.8,92.6,41.3z M112.2,41.1c0,2.4-0.7,4.3-2,5.7c-1.2,1.2-2.6,1.9-4.4,1.9c-1.9,0-3.2-0.7-4.1-2v7.5h-3.2V38.9
			c0-1.5,0-3.1-0.1-4.7h2.8l0.2,2.3h0.1c1.1-1.7,2.7-2.5,4.8-2.5c1.7,0,3.1,0.7,4.2,2C111.6,37.2,112.2,39,112.2,41.1L112.2,41.1z
			 M109,41.3c0-1.4-0.3-2.5-0.9-3.4c-0.7-0.9-1.6-1.4-2.7-1.4c-0.8,0-1.5,0.3-2.1,0.8c-0.6,0.5-1,1.2-1.2,2c-0.1,0.4-0.1,0.7-0.1,1
			v2.4c0,1,0.3,1.9,0.9,2.6c0.6,0.7,1.5,1.1,2.5,1.1c1.2,0,2.1-0.5,2.8-1.4C108.6,44,109,42.8,109,41.3z M130.5,42.9
			c0,1.7-0.6,3-1.8,4.1c-1.3,1.1-3.1,1.7-5.4,1.7c-2.1,0-3.8-0.4-5.1-1.2l0.7-2.6c1.4,0.8,2.9,1.2,4.6,1.2c1.2,0,2.1-0.3,2.8-0.8
			c0.7-0.5,1-1.3,1-2.1c0-0.8-0.3-1.5-0.8-2c-0.5-0.5-1.5-1.1-2.7-1.5c-3.5-1.3-5.2-3.2-5.2-5.6c0-1.6,0.6-2.9,1.8-4
			c1.2-1,2.8-1.6,4.8-1.6c1.8,0,3.3,0.3,4.5,0.9l-0.8,2.6c-1.1-0.6-2.4-0.9-3.8-0.9c-1.1,0-2,0.3-2.6,0.8c-0.5,0.5-0.8,1.1-0.8,1.8
			c0,0.8,0.3,1.4,0.9,1.9c0.5,0.5,1.5,1,2.9,1.5c1.7,0.7,2.9,1.5,3.7,2.4C130.1,40.4,130.5,41.5,130.5,42.9L130.5,42.9z M140.9,36.6
			h-3.5v6.9c0,1.8,0.6,2.6,1.8,2.6c0.6,0,1,0,1.4-0.1l0.1,2.4c-0.6,0.2-1.4,0.3-2.5,0.3c-1.2,0-2.2-0.4-2.9-1.1
			c-0.7-0.8-1.1-2-1.1-3.8v-7.2h-2.1v-2.4h2.1v-2.6l3.1-0.9v3.5h3.5L140.9,36.6L140.9,36.6z M156.6,41.2c0,2.2-0.6,4-1.9,5.4
			c-1.3,1.4-3,2.2-5.2,2.2c-2.1,0-3.8-0.7-5-2.1c-1.2-1.4-1.9-3.1-1.9-5.2c0-2.2,0.6-4,1.9-5.4c1.3-1.4,3-2.1,5.2-2.1
			c2.1,0,3.8,0.7,5,2.1C156,37.3,156.6,39.1,156.6,41.2L156.6,41.2z M153.3,41.3c0-1.3-0.3-2.4-0.8-3.4c-0.7-1.1-1.6-1.7-2.8-1.7
			c-1.3,0-2.2,0.6-2.9,1.7c-0.6,0.9-0.8,2.1-0.8,3.4c0,1.3,0.3,2.4,0.8,3.4c0.7,1.1,1.6,1.7,2.9,1.7c1.2,0,2.2-0.6,2.8-1.7
			C153.1,43.7,153.3,42.6,153.3,41.3L153.3,41.3z M166.9,37c-0.3-0.1-0.7-0.1-1-0.1c-1.1,0-2,0.4-2.6,1.3c-0.5,0.7-0.8,1.7-0.8,2.8
			v7.5h-3.2v-9.7c0-1.5,0-3-0.1-4.5h2.8l0.1,2.7h0.1c0.3-0.9,0.9-1.7,1.6-2.3c0.7-0.5,1.5-0.8,2.3-0.8c0.3,0,0.6,0,0.8,0.1L166.9,37
			L166.9,37z M181,40.6c0,0.5,0,1-0.1,1.4h-9.5c0,1.4,0.5,2.5,1.4,3.2c0.8,0.7,1.8,1,3.1,1c1.4,0,2.7-0.2,3.8-0.7l0.5,2.2
			c-1.3,0.6-2.9,0.9-4.8,0.9c-2.2,0-3.9-0.6-5.2-1.9c-1.3-1.3-1.9-3-1.9-5.2c0-2.1,0.6-3.9,1.8-5.4c1.2-1.5,2.9-2.3,5-2.3
			c2,0,3.6,0.8,4.7,2.3C180.6,37.4,181,38.9,181,40.6L181,40.6z M178,39.8c0-0.9-0.2-1.7-0.6-2.4c-0.5-0.9-1.4-1.3-2.5-1.3
			c-1,0-1.9,0.4-2.5,1.3c-0.5,0.7-0.8,1.5-0.9,2.5L178,39.8L178,39.8z"/>
	</g>
	<g>
		<path class="st0" d="M67,21.7c-0.9,0-1.6,0-2.3-0.1v-9.5c0.9-0.1,1.8-0.2,2.7-0.2c3.6,0,5.3,1.8,5.3,4.7
			C72.7,19.9,70.7,21.7,67,21.7z M67.5,13.1c-0.5,0-0.9,0-1.3,0.1v7.2c0.2,0,0.5,0,1,0c2.4,0,3.7-1.4,3.7-3.9
			C71.1,14.4,69.8,13.1,67.5,13.1z M77.9,21.8c-2,0-3.4-1.5-3.4-3.6c0-2.2,1.4-3.7,3.5-3.7c2,0,3.4,1.5,3.4,3.6
			C81.4,20.3,80,21.8,77.9,21.8z M78,15.6c-1.1,0-1.8,1-1.8,2.5c0,1.4,0.7,2.5,1.8,2.5c1.1,0,1.8-1.1,1.8-2.5
			C79.8,16.7,79,15.6,78,15.6L78,15.6z M93,14.7l-2.2,7h-1.4l-0.9-3c-0.2-0.7-0.4-1.5-0.6-2.3h0c-0.1,0.8-0.3,1.5-0.6,2.3l-1,3h-1.4
			l-2.1-7h1.6l0.8,3.3c0.2,0.8,0.3,1.5,0.5,2.2h0c0.1-0.6,0.3-1.3,0.6-2.2l1-3.3h1.3l0.9,3.3c0.2,0.8,0.4,1.6,0.6,2.3h0
			c0.1-0.7,0.3-1.5,0.5-2.3l0.8-3.3L93,14.7L93,14.7z M101.1,21.6h-1.6v-4c0-1.2-0.5-1.9-1.4-1.9c-0.9,0-1.6,0.8-1.6,1.7v4.2H95v-5
			c0-0.6,0-1.3-0.1-2h1.4l0.1,1.1h0c0.4-0.7,1.3-1.2,2.2-1.2c1.5,0,2.4,1.1,2.4,2.9L101.1,21.6L101.1,21.6z M105.3,21.6h-1.6V11.4
			h1.6V21.6z M111,21.8c-2,0-3.4-1.5-3.4-3.6c0-2.2,1.4-3.7,3.5-3.7c2,0,3.4,1.5,3.4,3.6C114.5,20.3,113.1,21.8,111,21.8z
			 M111.1,15.6c-1.1,0-1.8,1-1.8,2.5c0,1.4,0.7,2.5,1.8,2.5c1.1,0,1.8-1.1,1.8-2.5C112.9,16.7,112.2,15.6,111.1,15.6L111.1,15.6z
			 M120.6,21.6l-0.1-0.8h0c-0.5,0.6-1.2,1-2,1c-1.3,0-2.1-0.9-2.1-2.1c0-1.7,1.5-2.6,4.1-2.6V17c0-0.9-0.5-1.4-1.5-1.4
			c-0.7,0-1.3,0.2-1.8,0.5l-0.3-1c0.6-0.4,1.5-0.6,2.4-0.6c1.8,0,2.7,1,2.7,2.9V20c0,0.7,0,1.3,0.1,1.7L120.6,21.6L120.6,21.6z
			 M120.4,18.2c-1.7,0-2.6,0.4-2.6,1.4c0,0.7,0.4,1.1,1.1,1.1c0.8,0,1.5-0.6,1.5-1.4V18.2z M129.5,21.6l-0.1-1.1h0
			c-0.4,0.8-1.2,1.3-2.2,1.3c-1.7,0-2.9-1.5-2.9-3.6c0-2.2,1.3-3.7,3.1-3.7c0.9,0,1.6,0.3,2,0.9h0v-4h1.6v8.3c0,0.7,0,1.3,0.1,1.9
			H129.5L129.5,21.6z M129.2,17.5c0-1-0.6-1.8-1.6-1.8c-1.2,0-1.9,1-1.9,2.5c0,1.4,0.7,2.4,1.8,2.4c1,0,1.7-0.8,1.7-1.9L129.2,17.5
			L129.2,17.5z M140.6,21.8c-2,0-3.4-1.5-3.4-3.6c0-2.2,1.4-3.7,3.5-3.7c2,0,3.4,1.5,3.4,3.6C144.1,20.3,142.7,21.8,140.6,21.8
			L140.6,21.8z M140.7,15.6c-1.1,0-1.8,1-1.8,2.5c0,1.4,0.7,2.5,1.8,2.5c1.1,0,1.8-1.1,1.8-2.5C142.5,16.7,141.8,15.6,140.7,15.6
			L140.7,15.6z M152.5,21.6h-1.6v-4c0-1.2-0.5-1.9-1.4-1.9c-0.9,0-1.6,0.8-1.6,1.7v4.2h-1.6v-5c0-0.6,0-1.3-0.1-2h1.4l0.1,1.1h0
			c0.4-0.7,1.3-1.2,2.2-1.2c1.5,0,2.4,1.1,2.4,2.9V21.6z M162.9,15.8h-1.7v3.4c0,0.9,0.3,1.3,0.9,1.3c0.3,0,0.5,0,0.7-0.1l0,1.2
			c-0.3,0.1-0.7,0.2-1.2,0.2c-1.2,0-2-0.7-2-2.4v-3.5h-1v-1.2h1v-1.3l1.5-0.5v1.7h1.7L162.9,15.8L162.9,15.8z M171.1,21.6h-1.6v-4
			c0-1.3-0.5-1.9-1.4-1.9c-0.8,0-1.6,0.5-1.6,1.7v4.2h-1.6V11.4h1.6v4.2h0c0.5-0.8,1.2-1.1,2.1-1.1c1.5,0,2.4,1.1,2.4,3L171.1,21.6
			L171.1,21.6z M179.6,18.5h-4.7c0,1.3,0.9,2.1,2.2,2.1c0.7,0,1.3-0.1,1.9-0.3l0.2,1.1c-0.7,0.3-1.4,0.4-2.3,0.4
			c-2.2,0-3.5-1.4-3.5-3.5c0-2.1,1.3-3.8,3.3-3.8c1.8,0,2.9,1.3,2.9,3.3C179.6,18.1,179.6,18.3,179.6,18.5L179.6,18.5z M178.1,17.4
			c0-1.1-0.5-1.8-1.5-1.8c-0.9,0-1.6,0.8-1.7,1.8H178.1L178.1,17.4z"/>
	</g>
</g>
</svg>
