<?xml version="1.0" encoding="utf-8"?>
<!-- Generator: Adobe Illustrator 27.0.1, SVG Export Plug-In . SVG Version: 6.00 Build 0)  -->
<svg version="1.1" id="Capa_1" xmlns="http://www.w3.org/2000/svg" xmlns:xlink="http://www.w3.org/1999/xlink" x="0px" y="0px"
	 viewBox="0 0 800 800" style="enable-background:new 0 0 800 800;" xml:space="preserve">
<style type="text/css">
	.st0{fill:#79777D;}
</style>
<g id="SVGRepo_bgCarrier">
</g>
<g id="SVGRepo_tracerCarrier">
</g>
<g id="SVGRepo_iconCarrier">
	<g>
		<path class="st0" d="M372.4,154.4c0-5,0.7-15.8,2.1-32.2c1.5-16.5,7.7-33.8,18.9-51.9c11.1-18.1,29.1-34.3,54.1-48.7
			C472.4,7.2,508.3,0,555.3,0h132.3v144.2h-96.9c-9.6,0-18.5,3.6-26.6,10.7c-8,7.1-12.1,13.9-12.1,20.1v89.7h135.5
			c-1.4,17.6-3,34.6-4.8,51.1l-5.4,43.6c-2.1,14.7-4.3,28.4-6.5,40.9H551V800H372.4V400.3h-87.1V264.7h87.1V154.4z"/>
	</g>
</g>
</svg>
