<?xml version="1.0" encoding="utf-8"?>
<!-- Generator: Adobe Illustrator 27.0.1, SVG Export Plug-In . SVG Version: 6.00 Build 0)  -->
<svg version="1.1" id="Layer_1" xmlns="http://www.w3.org/2000/svg" xmlns:xlink="http://www.w3.org/1999/xlink" x="0px" y="0px"
	 viewBox="0 0 800 800" style="enable-background:new 0 0 800 800;" xml:space="preserve">
<g id="SVGRepo_bgCarrier">
</g>
<g id="SVGRepo_tracerCarrier">
</g>
<g id="SVGRepo_iconCarrier">
	<g>
		<path d="M726.1,107.7C687.7,74,637.9,55.5,586,55.5c-59.8,0-118.7,24.5-161.6,67.3l-16.9,16.8c-4.1,4.1-11,4.1-15.1,0l-22.2-22.1
			c-41-40.9-95.4-63.4-153.3-63.4c-56.6,0-110.1,21.6-150.8,60.8C25.7,153.9,3.2,207.6,2.7,266C2.2,327,26.4,386.5,69,429
			l308.2,307.5c6.1,6.1,14.2,9.4,22.8,9.4s16.7-3.4,22.8-9.4l313.6-312.9c42.2-42.1,65.3-100.4,63.4-160
			C798,203.2,771.7,147.8,726.1,107.7z M721.2,408.3L407.5,721.2c-4.1,4.1-11,4.1-15.1,0L84.3,413.7c-38.6-38.5-60.4-92.3-60-147.5
			c0.4-52.6,20.6-100.8,56.8-135.7c36.6-35.3,84.8-54.8,135.8-54.8c52.2,0,101.2,20.3,138.1,57.1l22.2,22.1
			c12.2,12.2,33.4,12.2,45.6,0l16.9-16.8c38.8-38.7,92.2-61,146.3-61c46.7,0,91.4,16.6,125.9,46.9c41.1,36.1,64.7,85.9,66.4,140.3
			C780,318.7,759.7,369.8,721.2,408.3z"/>
	</g>
</g>
</svg>
