<?xml version="1.0" encoding="utf-8"?>
<!-- Generator: Adobe Illustrator 27.0.1, SVG Export Plug-In . SVG Version: 6.00 Build 0)  -->
<svg version="1.1" id="Capa_1" xmlns="http://www.w3.org/2000/svg" xmlns:xlink="http://www.w3.org/1999/xlink" x="0px" y="0px"
	 viewBox="0 0 800 800" style="enable-background:new 0 0 800 800;" xml:space="preserve">
<style type="text/css">
	.st0{fill-rule:evenodd;clip-rule:evenodd;fill:#79777D;}
</style>
<g id="SVGRepo_bgCarrier">
</g>
<g id="SVGRepo_tracerCarrier">
</g>
<g id="SVGRepo_iconCarrier">
	<path class="st0" d="M0,160C0,71.6,71.6,0,160,0h480c88.4,0,160,71.6,160,160v480c0,88.4-71.6,160-160,160H160
		C71.6,800,0,728.4,0,640V160z M160,80c-44.2,0-80,35.8-80,80v480c0,44.2,35.8,80,80,80h480c44.2,0,80-35.8,80-80V160
		c0-44.2-35.8-80-80-80H160z M400,280c-66.3,0-120,53.7-120,120s53.7,120,120,120s120-53.7,120-120S466.3,280,400,280z M200,400
		c0-110.5,89.5-200,200-200c110.5,0,200,89.5,200,200c0,110.5-89.5,200-200,200C289.5,600,200,510.5,200,400z M620,240
		c33.1,0,60-26.9,60-60s-26.9-60-60-60s-60,26.9-60,60S586.9,240,620,240z"/>
</g>
</svg>
