<!DOCTYPE svg PUBLIC "-//W3C//DTD SVG 1.1//EN" "http://www.w3.org/Graphics/SVG/1.1/DTD/svg11.dtd">
<!-- Uploaded to: SVG Repo, www.svgrepo.com, Transformed by: SVG Repo Mixer Tools -->
<svg fill="#ffffff" width="800px" height="800px" viewBox="0 0 64 64" data-name="Layer 1" id="Layer_1" xmlns="http://www.w3.org/2000/svg">
<g id="SVGRepo_bgCarrier" stroke-width="0"/>
<g id="SVGRepo_tracerCarrier" stroke-linecap="round" stroke-linejoin="round"/>
<g id="SVGRepo_iconCarrier">
<title/>
<path d="M54.82,18.73H42.14a2,2,0,0,1,0-4H54.82a2,2,0,0,1,0,4Z"/>
<path d="M29.13,18.73H9.18a2,2,0,0,1,0-4h20a2,2,0,0,1,0,4Z"/>
<path d="M54.82,34H9.18a2,2,0,0,1,0-4H54.82a2,2,0,0,1,0,4Z"/>
<path d="M33.93,49.27H9.18a2,2,0,0,1,0-4H33.93a2,2,0,0,1,0,4Z"/>
</g>
</svg>