<?xml version="1.0" encoding="utf-8"?>
<!-- Generator: Adobe Illustrator 27.0.1, SVG Export Plug-In . SVG Version: 6.00 Build 0)  -->
<svg version="1.1" id="Capa_1" xmlns="http://www.w3.org/2000/svg" xmlns:xlink="http://www.w3.org/1999/xlink" x="0px" y="0px"
	 viewBox="0 0 800 800" style="enable-background:new 0 0 800 800;" xml:space="preserve">
<g id="SVGRepo_bgCarrier">
</g>
<g id="SVGRepo_tracerCarrier">
</g>
<g id="SVGRepo_iconCarrier">
	<path d="M450.9,165.9c-0.3,0-0.6,0-0.9,0c-10.3,0-18.8,8.4-18.8,18.8c0,10,7.8,18.2,17.6,18.7h0.1c88.3,5.8,157.8,78.8,157.8,168.1
		c0,4.7-0.2,9.2-0.5,13.8l0-0.6c0,10.3,8.4,18.8,18.8,18.8s18.8-8.4,18.8-18.8l0,0c0.2-3.6,0.4-7.8,0.4-12
		c0-109.5-84.9-199.2-192.5-206.7L450.9,165.9L450.9,165.9z M449.1,68.7C460.3,69.3,724,85.9,724,384.6c0,10.3,8.4,18.8,18.8,18.8
		s18.8-8.4,18.8-18.8l0,0c0.4-6,0.6-12.9,0.6-19.9c0-176.5-136.8-321-310.1-333.4l-1.1,0c-0.2,0-0.5,0-0.7,0
		c-10.1,0-18.3,7.8-18.9,17.8v0c0,0.3,0,0.6,0,0.9C431.2,60,439.1,68.2,449.1,68.7L449.1,68.7L449.1,68.7z M765.9,578.8
		c-2.7-16.9-8.3-32-16.3-45.6l0.3,0.6c-2.9-4.7-7.5-7.9-13-8.8l-0.1,0l-224.2-35.6c-0.9-0.2-1.9-0.2-2.9-0.2
		c-5.2,0-9.9,2.1-13.3,5.5l0,0c-16.9,17-29.9,37.9-37.4,61.3l-0.3,1.1c-100.4-41-178.5-119.1-218.6-216.9l-0.9-2.6
		c24.4-7.8,45.4-20.8,62.3-37.7l0,0c3.4-3.4,5.5-8.1,5.5-13.3c0-1-0.1-2-0.2-3l0,0.1L271.1,59.3c-0.9-5.6-4.2-10.3-8.8-13.1l-0.1,0
		c-12.6-7.5-27.4-13-43.1-15.7l-0.7-0.1c-7.9-1.8-16.9-2.8-26.2-2.8c-0.6,0-1.2,0-1.9,0h0.1h-0.1C102.9,28.3,32.2,99,31.7,186.4v0.1
		c0.4,319,258.9,577.6,577.9,577.9h0.1c87.5-0.6,158.3-71.3,158.8-158.8v-0.1c0-0.5,0-1.1,0-1.7c0-8.9-0.9-17.6-2.7-26L765.9,578.8
		L765.9,578.8z M609.6,726.9c-298.3-0.3-540-242.1-540.4-540.4v0c0.5-66.8,54.6-120.9,121.4-121.3h0c0.4,0,0.9,0,1.4,0
		c6.8,0,13.4,0.8,19.8,2.2l-0.6-0.1c9.2,1.5,17.4,4,25.1,7.5l-0.6-0.2l32.6,205.1c-15.7,13.2-35.1,22.5-56.4,26.2l-0.7,0.1
		c-8.9,1.6-15.5,9.2-15.5,18.5c0,2.2,0.4,4.3,1.1,6.2l0-0.1c44.3,126.8,142.4,224.9,266.1,268.2l3,0.9c1.8,0.6,3.9,1,6.1,1
		c9.2,0,16.9-6.6,18.4-15.4l0-0.1c3.8-22,13.2-41.5,26.5-57.4l-0.2,0.2l205,32.6c3.3,7.4,5.9,15.9,7.4,24.8l0.1,0.6
		c1.2,5.5,1.8,11.8,1.8,18.2c0,0.5,0,0.9,0,1.3v-0.1c-0.4,66.9-54.5,121-121.3,121.5L609.6,726.9L609.6,726.9z"/>
</g>
</svg>
