<?xml version="1.0" encoding="utf-8"?>
<!-- Generator: Adobe Illustrator 27.0.1, SVG Export Plug-In . SVG Version: 6.00 Build 0)  -->
<svg version="1.1" id="Capa_1" xmlns="http://www.w3.org/2000/svg" xmlns:xlink="http://www.w3.org/1999/xlink" x="0px" y="0px"
	 viewBox="0 0 800 800" style="enable-background:new 0 0 800 800;" xml:space="preserve">
<style type="text/css">
	.st0{fill:#79777D;}
</style>
<g id="SVGRepo_bgCarrier">
</g>
<g id="SVGRepo_tracerCarrier">
</g>
<g id="SVGRepo_iconCarrier">
	<path class="st0" d="M410.7,0C201.5,0,90.4,140.5,90.4,293.6c0,71.1,37.8,159.6,98.4,187.9c9.2,4.3,14.1,2.3,16.1-6.5
		c1.7-6.7,9.9-39.6,13.6-54.9c1.4-5,0.1-10.3-3.5-14c-20-24.2-35.9-68.9-35.9-110.5c0-106.9,81-210.4,218.9-210.4
		c119.2,0,202.5,81.1,202.5,197.2c0,131.2-66.2,222-152.3,222c-47.6,0-83.3-39.3-71.9-87.7c13.7-57.6,40.2-119.9,40.2-161.3
		c0-37.3-20.1-68.4-61.2-68.4c-48.7,0-87.8,50.3-87.8,117.8c0,43,14.5,71.9,14.5,71.9s-48.1,203.3-56.8,241.1
		c-15,64.2,1.9,168.1,3.4,177.2c0.8,4.9,6.3,6.5,9.2,2.4c4.7-6.4,62.7-93.2,79-156l30.1-115.3c16,30.1,62,55.7,111.3,55.7
		c146.2,0,251.7-134.6,251.7-301.7C709.8,120,579,0,410.7,0z"/>
</g>
</svg>
