<?xml version="1.0" encoding="iso-8859-1"?>
<!-- Uploaded to: SVG Repo, www.svgrepo.com, Generator: SVG Repo Mixer Tools -->
<svg fill="#000000" height="800px" width="800px" version="1.1" id="Layer_1" xmlns="http://www.w3.org/2000/svg" xmlns:xlink="http://www.w3.org/1999/xlink" 
	 viewBox="0 0 503.607 503.607" xml:space="preserve">
<g transform="translate(1 1)">
	<g>
		<g>
			<path d="M208.836,258.357c-5.036,0-8.393,3.357-8.393,8.393s3.357,8.393,8.393,8.393h83.934c5.036,0,8.393-3.357,8.393-8.393
				s-3.357-8.393-8.393-8.393H208.836z"/>
			<path d="M292.77,308.718h-83.934c-5.036,0-8.393,3.357-8.393,8.393c0,5.036,3.357,8.393,8.393,8.393h83.934
				c5.036,0,8.393-3.357,8.393-8.393C301.164,312.075,297.807,308.718,292.77,308.718z"/>
			<path d="M292.77,359.079h-83.934c-5.036,0-8.393,3.357-8.393,8.393s3.357,8.393,8.393,8.393h83.934
				c5.036,0,8.393-3.357,8.393-8.393S297.807,359.079,292.77,359.079z"/>
			<path d="M292.77,409.439h-83.934c-5.036,0-8.393,3.357-8.393,8.393s3.357,8.393,8.393,8.393h83.934
				c5.036,0,8.393-3.357,8.393-8.393S297.807,409.439,292.77,409.439z"/>
			<path d="M451.407,6.554c-9.233-10.072-25.18-10.072-35.252,0l-23.502,23.502c-7.849,7.195-9.58,18.466-5.196,27.858L373.371,72
				c-9.068-4.552-20.634-2.868-28.561,5.06l-23.502,23.502c-8.006,7.339-9.641,18.919-4.919,28.42l-15.284,15.284
				c-9.134-3.722-20.587-2.076-27.639,4.977l-22.243,22.243l-23.082-23.082c-7.339-8.006-18.919-9.641-28.42-4.919l-14.363-14.363
				c4.552-9.068,2.868-20.634-5.059-28.561l-23.502-23.502c-7.369-8.039-19.013-9.654-28.536-4.861l-14.187-13.697
				c4.479-9.051,2.773-20.552-5.12-28.445L85.452,6.554c-9.233-10.072-25.18-10.072-35.252,0c-10.072,9.233-10.072,25.18,0,35.253
				l23.502,23.502c5.036,5.036,11.751,7.554,17.626,7.554c3.862,0,7.722-0.838,11.106-2.504l13.991,13.508
				c-4.479,9.051-2.773,20.552,5.12,28.445l23.502,23.502c5.036,5.036,10.911,7.554,17.626,7.554c3.907,0,7.81-0.576,11.221-2.209
				l13.936,13.936c-4.552,9.068-2.868,20.634,5.06,28.561l0.324,0.324c-5.683,1.967-11.113,4.046-16.272,6.391l-9.233,4.197
				c-10.911,5.036-17.626,15.948-17.626,27.698v231.659c0,11.751,6.715,22.662,17.626,27.698l10.072,5.036
				c23.502,10.911,47.843,15.948,73.023,15.948c25.18,0,49.521-5.875,73.862-15.108l10.072-5.036
				c10.911-5.036,17.626-15.948,17.626-27.698V222.266c0-11.751-6.715-22.662-17.626-27.698l-9.233-4.197
				c-5.277-2.45-10.686-4.588-16.188-6.455c7.508-7.385,8.931-18.665,4.27-27.941l14.58-15.12c3.311,1.671,6.899,2.512,10.767,2.512
				c6.715,0,12.59-1.679,17.626-7.554l23.502-23.502c5.036-4.197,7.554-10.911,7.554-17.626c0-3.907-0.859-7.527-2.564-10.866
				l13.809-13.809c3.49,1.898,7.294,2.852,11.417,2.852c5.875,0,12.59-2.518,17.626-7.554l23.502-23.502
				c5.036-4.197,7.554-10.911,7.554-17.626C458.961,17.466,456.443,11.59,451.407,6.554z M216.39,160.154l23.502,23.502
				c1.679,1.679,2.518,3.357,2.518,5.875c0,2.518-0.839,4.197-2.518,5.875c-1.567,1.567-3.499,2.392-5.456,2.497
				c-1.957-0.105-3.889-0.93-5.456-2.497l-13.43-13.43c-0.864-0.864-1.83-1.516-2.824-1.984l-8.088-8.088
				c-3.357-3.357-3.357-8.393,0-11.751c1.679-1.679,3.357-2.518,5.875-2.518C212.193,157.636,214.711,158.475,216.39,160.154z
				 M85.452,52.718L61.951,29.216c-3.357-3.357-3.357-8.393,0-11.751c1.679-1.679,3.357-2.518,5.875-2.518
				c2.518,0,4.197,0.839,5.875,2.518l23.502,23.502c3.357,3.357,3.357,8.393,0,11.751C93.846,56.075,88.81,56.075,85.452,52.718z
				 M156.797,124.062l-23.502-23.502c-3.357-3.357-3.357-8.393,0-11.751c1.679-1.679,3.357-2.518,5.875-2.518
				c1.679,0,4.197,0.839,5.875,2.518l23.502,23.502c3.357,3.357,3.357,8.393,0,11.751C165.19,127.42,160.154,127.42,156.797,124.062
				z M326.344,209.675c4.197,2.518,7.554,7.554,7.554,12.59v233.338c0,5.875-2.518,10.072-7.554,12.59l-10.072,5.036
				c-41.967,19.305-89.81,19.305-131.777,0l-10.072-5.036c-4.197-2.518-7.554-7.554-7.554-12.59V223.105
				c0-5.875,2.518-10.072,7.554-12.59l9.233-4.197c7.554-3.357,15.108-5.875,22.662-8.393l10.072,10.072
				c9.233,10.072,25.18,10.072,35.252,0c4.99-4.159,6.683-9.966,7.53-15.788c10.96,0.469,21.443,2.083,31.919,4.876
				c0,0,0.423,0,0.966,0c8.87,2.344,17.553,5.442,25.893,9.233L326.344,209.675z M270.689,175.521l15.367-15.367
				c2.719-2.719,6.54-3.235,9.678-1.549c0.344,0.543,0.75,1.065,1.234,1.549c0.688,0.688,1.379,1.227,2.124,1.633
				c1.986,3.215,1.564,7.269-1.285,10.118l-6.893,6.893C284.248,177.332,277.493,176.242,270.689,175.521z M368.311,100.561
				l-23.502,23.502c-3.357,3.357-8.393,3.357-11.751,0c-3.357-3.357-3.357-8.393,0-11.751l23.502-23.502
				c1.679-1.679,3.357-2.518,5.875-2.518c2.518,0,4.197,0.839,5.875,2.518c1.679,1.679,2.518,3.357,2.518,5.875
				C370.829,97.203,369.99,98.882,368.311,100.561z M439.656,29.216l-23.502,23.502c-3.357,3.357-8.393,3.357-11.751,0
				c-3.357-3.357-3.357-8.393,0-11.751l23.502-23.502c1.679-1.679,3.357-2.518,5.875-2.518c2.518,0,4.197,0.839,5.875,2.518
				c1.679,1.679,2.518,3.357,2.518,5.875C442.174,25.859,441.334,27.538,439.656,29.216z"/>
		</g>
	</g>
</g>
</svg>