<?xml version="1.0" encoding="utf-8"?>
<!-- Generator: Adobe Illustrator 27.0.1, SVG Export Plug-In . SVG Version: 6.00 Build 0)  -->
<svg version="1.1" id="Capa_1" xmlns="http://www.w3.org/2000/svg" xmlns:xlink="http://www.w3.org/1999/xlink" x="0px" y="0px"
	 viewBox="0 0 301.4 69.2" style="enable-background:new 0 0 301.4 69.2;" xml:space="preserve">
<style type="text/css">
	.st0{fill:#08A487;stroke:#08A487;stroke-miterlimit:10;}
	.st1{fill:#1D1D1B;stroke:#1D1D1B;stroke-miterlimit:10;}
</style>
<g>
	<path class="st0" d="M22.6,4.4c2.5,0,4.8,0.7,7,2.2c2.2,1.4,4,3.4,5.3,5.8s2,5.2,2,8.2s-0.7,5.7-2,8.1c-1.3,2.5-3.1,4.4-5.3,5.9
		c-2.2,1.5-4.5,2.2-7,2.2H9.3l0.7-1.3v14.9c0,1.2-0.4,2.3-1.2,3.1s-1.8,1.3-3,1.3s-2.2-0.4-3-1.3c-0.8-0.8-1.1-1.9-1.1-3.1V8.8
		c0-1.2,0.4-2.3,1.3-3.1s1.9-1.3,3.1-1.3H22.6L22.6,4.4z M22.6,28.6c0.9,0,1.8-0.4,2.7-1.2s1.6-1.8,2.2-3c0.6-1.2,0.9-2.5,0.9-3.8
		s-0.3-2.7-0.9-3.9c-0.6-1.2-1.3-2.2-2.2-2.9c-0.9-0.7-1.8-1.1-2.7-1.1H9.2l0.9-1.3v18.4l-0.8-1.2L22.6,28.6L22.6,28.6z"/>
	<path class="st0" d="M61.9,55.6c-4.1,0-7.6-0.8-10.6-2.6c-3-1.7-5.3-4-6.9-6.9s-2.4-6.2-2.4-9.9c0-4.3,0.9-8,2.6-11s4-5.4,6.9-7
		c2.8-1.6,5.8-2.5,9-2.5c2.4,0,4.8,0.5,6.9,1.5c2.2,1,4.1,2.4,5.8,4.1s3,3.8,4,6.1c1,2.3,1.5,4.8,1.5,7.3c-0.1,1.2-0.5,2.1-1.4,2.8
		c-0.9,0.7-1.9,1.1-3,1.1H46.8l-2.2-7.2h26.4l-1.6,1.4v-1.9c-0.1-1.4-0.6-2.6-1.5-3.7c-0.9-1.1-2-2-3.3-2.6s-2.7-1-4.2-1
		s-2.8,0.2-4,0.6c-1.2,0.4-2.3,1-3.2,1.9s-1.6,2.1-2.2,3.7c-0.5,1.5-0.8,3.5-0.8,5.8c0,2.6,0.5,4.8,1.6,6.6c1.1,1.8,2.5,3.2,4.2,4.1
		c1.7,0.9,3.5,1.4,5.4,1.4c1.8,0,3.2-0.1,4.2-0.4s1.9-0.6,2.6-1c0.7-0.4,1.2-0.8,1.8-1c0.9-0.4,1.7-0.7,2.4-0.7
		c1.1,0,1.9,0.4,2.6,1.1s1,1.6,1,2.5c0,1.3-0.7,2.5-2,3.5c-1.2,1.1-3,2-5.3,2.8C66.6,55.1,64.3,55.5,61.9,55.6L61.9,55.6z"/>
	<path class="st0" d="M86.7,17h17.1c1.1,0,2.1,0.4,2.9,1.2s1.1,1.7,1.1,2.9s-0.4,2-1.1,2.8c-0.8,0.7-1.7,1.1-2.9,1.1H86.7
		c-1.2,0-2.1-0.4-2.9-1.2s-1.2-1.7-1.2-2.9s0.4-2,1.2-2.8C84.5,17.4,85.5,17,86.7,17z M94.4,8c1.2,0,2.3,0.4,3.1,1.3
		s1.2,1.9,1.2,3.1v32c0,0.7,0.1,1.2,0.4,1.7c0.3,0.4,0.6,0.7,1.1,0.9c0.5,0.2,0.9,0.3,1.5,0.3c0.6,0,1.1-0.1,1.6-0.3
		c0.5-0.2,1-0.3,1.7-0.3c0.7,0,1.3,0.3,1.8,0.9c0.6,0.6,0.8,1.5,0.8,2.6c0,1.3-0.7,2.4-2.2,3.3c-1.5,0.9-3,1.3-4.7,1.3
		c-1,0-2.1-0.1-3.3-0.2c-1.2-0.2-2.4-0.6-3.5-1.2s-2-1.6-2.7-3c-0.7-1.3-1.1-3.2-1.1-5.5V12.4c0-1.2,0.4-2.3,1.3-3.1S93.1,8,94.4,8z
		"/>
	<path class="st1" d="M132.6,55.6c-3.4,0-6.4-0.4-9.1-1.3c-2.7-0.8-5.3-2.3-7.7-4.4c-0.6-0.5-1.1-1.1-1.4-1.8
		c-0.3-0.7-0.5-1.3-0.5-2c0-1.1,0.4-2.1,1.2-2.9c0.8-0.8,1.8-1.3,3-1.3c0.9,0,1.7,0.3,2.4,0.9c1.8,1.5,3.6,2.6,5.4,3.4
		c1.8,0.8,4,1.2,6.7,1.2c1.8,0,3.4-0.3,4.9-0.8c1.5-0.6,2.7-1.3,3.6-2.2c0.9-0.9,1.4-2,1.4-3.2c0-1.4-0.4-2.7-1.3-3.7
		c-0.9-1-2.2-1.9-4-2.6c-1.8-0.7-4-1.2-6.8-1.6c-2.6-0.4-4.9-1-6.8-1.8c-2-0.8-3.6-1.8-4.9-3c-1.3-1.2-2.3-2.7-3-4.3s-1-3.5-1-5.6
		c0-3.1,0.8-5.8,2.4-8s3.8-3.9,6.5-5c2.7-1.1,5.8-1.7,9.1-1.7c3.1,0,6,0.5,8.7,1.4c2.7,0.9,4.8,2.1,6.5,3.6c1.4,1.1,2.1,2.4,2.1,3.8
		c0,1.1-0.4,2-1.2,2.9c-0.8,0.9-1.8,1.3-2.9,1.3c-0.7,0-1.4-0.2-1.9-0.7c-0.8-0.7-1.8-1.3-3.1-1.9s-2.7-1.1-4.1-1.5s-2.8-0.6-4-0.6
		c-2.1,0-3.8,0.3-5.2,0.8c-1.4,0.5-2.5,1.2-3.2,2.2s-1.1,2-1.1,3.2c0,1.4,0.4,2.6,1.3,3.6c0.8,0.9,2.1,1.7,3.6,2.2
		c1.6,0.5,3.5,1,5.7,1.5c2.9,0.5,5.4,1.2,7.6,1.9c2.2,0.7,4,1.7,5.4,2.8c1.4,1.1,2.5,2.5,3.2,4.2c0.7,1.7,1.1,3.8,1.1,6.2
		c0,3.1-0.9,5.8-2.6,8.1c-1.7,2.3-4,4-6.8,5.2S135.9,55.5,132.6,55.6L132.6,55.6z"/>
	<path class="st1" d="M178.9,15.6c3.5,0,6.1,0.8,7.9,2.2c1.8,1.5,3,3.5,3.7,5.9c0.7,2.5,1,5.2,1,8.2v18.4c0,1.2-0.4,2.3-1.2,3.1
		c-0.8,0.8-1.9,1.3-3.1,1.3s-2.3-0.4-3.1-1.3c-0.8-0.8-1.2-1.9-1.2-3.1V32c0-1.6-0.2-3-0.6-4.3c-0.4-1.3-1.1-2.3-2.1-3.1
		s-2.4-1.2-4.3-1.2s-3.4,0.4-4.7,1.2c-1.3,0.8-2.3,1.8-2.9,3.1s-1,2.7-1,4.3v18.4c0,1.2-0.4,2.3-1.2,3.1c-0.8,0.8-1.9,1.3-3.1,1.3
		s-2.3-0.4-3.1-1.3c-0.8-0.8-1.2-1.9-1.2-3.1V5.9c0-1.2,0.4-2.3,1.2-3.1c0.8-0.8,1.9-1.3,3.1-1.3s2.3,0.4,3.1,1.3s1.2,1.9,1.2,3.1
		v17.9l-1.1-0.2c0.4-0.8,1-1.7,1.8-2.6c0.8-0.9,1.7-1.8,2.8-2.6c1.1-0.8,2.3-1.5,3.7-2C175.8,15.8,177.3,15.6,178.9,15.6L178.9,15.6
		z"/>
	<path class="st1" d="M238.2,35.6c0,3.9-0.9,7.4-2.6,10.4s-4.1,5.3-7.1,7c-2.9,1.7-6.2,2.5-9.9,2.5s-6.9-0.8-9.9-2.5s-5.3-4-7.1-7
		c-1.8-3-2.6-6.5-2.6-10.4s0.9-7.4,2.6-10.4s4.1-5.3,7.1-7.1c2.9-1.7,6.2-2.6,9.9-2.6s6.9,0.8,9.9,2.6c3,1.7,5.3,4.1,7.1,7.1
		C237.3,28.2,238.2,31.7,238.2,35.6z M229.6,35.6c0-2.5-0.5-4.6-1.5-6.4c-1-1.8-2.3-3.2-4-4.2s-3.5-1.5-5.5-1.5s-3.9,0.5-5.5,1.5
		c-1.7,1-3,2.4-4,4.2c-1,1.8-1.5,3.9-1.5,6.4s0.5,4.5,1.5,6.3c1,1.8,2.3,3.2,4,4.2s3.5,1.5,5.5,1.5s3.9-0.5,5.5-1.5
		c1.7-1,3-2.4,4-4.2C229.1,40.1,229.6,38,229.6,35.6z"/>
	<path class="st1" d="M265.7,15.6c3.4,0,6.4,0.8,9,2.6c2.7,1.7,4.8,4,6.3,7s2.3,6.4,2.3,10.4s-0.8,7.4-2.3,10.4s-3.6,5.3-6.3,7.1
		c-2.6,1.7-5.6,2.6-8.8,2.6c-1.9,0-3.7-0.3-5.4-0.9c-1.7-0.6-3.2-1.4-4.4-2.4c-1.3-1-2.3-1.9-3-2.9c-0.7-1-1-1.8-1-2.5l2.2-0.9v18.9
		c0,1.2-0.4,2.3-1.2,3.1c-0.8,0.8-1.9,1.3-3.1,1.3s-2.3-0.4-3.1-1.2s-1.2-1.9-1.2-3.2V20.7c0-1.2,0.4-2.3,1.2-3.1
		c0.8-0.8,1.9-1.3,3.1-1.3s2.3,0.4,3.1,1.3s1.2,1.9,1.2,3.1v3.5l-1.2-0.7c0-0.6,0.3-1.4,1-2.3c0.7-0.9,1.6-1.8,2.7-2.7
		c1.1-0.9,2.5-1.6,4-2.2C262.5,15.9,264.1,15.6,265.7,15.6L265.7,15.6z M264.6,23.5c-2.1,0-4,0.5-5.5,1.6c-1.6,1.1-2.8,2.5-3.7,4.3
		c-0.9,1.8-1.3,3.8-1.3,6.2s0.4,4.3,1.3,6.2c0.9,1.8,2.1,3.3,3.7,4.4c1.6,1.1,3.4,1.6,5.5,1.6s4-0.5,5.5-1.6
		c1.6-1.1,2.8-2.5,3.7-4.4s1.3-3.9,1.3-6.2s-0.4-4.4-1.3-6.2c-0.9-1.8-2.1-3.2-3.7-4.3C268.6,24,266.7,23.5,264.6,23.5z"/>
	<path class="st0" d="M294.8,54.8c-1.4,0-2.5-0.4-3.2-1.1c-0.8-0.7-1.1-1.8-1.1-3.2v-1.2c0-1.4,0.4-2.5,1.1-3.2
		c0.7-0.7,1.8-1.1,3.2-1.1h0.9c1.4,0,2.5,0.4,3.2,1.1c0.7,0.7,1.1,1.8,1.1,3.2v1.2c0,1.4-0.4,2.5-1.1,3.2c-0.7,0.7-1.8,1.1-3.2,1.1
		H294.8z"/>
</g>
</svg>
